<mxfile host="app.diagrams.net" modified="2021-02-23T07:10:37.218Z" agent="5.0 (Windows NT 10.0; Win64; x64) AppleWebKit/537.36 (KHTML, like Gecko) Chrome/88.0.4324.182 Safari/537.36" etag="jSQULziGt42JdHR_P-au" version="14.4.2" type="github">
  <diagram name="企業體合併" id="e7e014a7-5840-1c2e-5031-d8a46d1fe8dd">
    <mxGraphModel dx="1483" dy="703" grid="1" gridSize="10" guides="1" tooltips="1" connect="1" arrows="1" fold="1" page="1" pageScale="1" pageWidth="1169" pageHeight="826" background="#ffffff" math="0" shadow="0">
      <root>
        <mxCell id="0" />
        <mxCell id="1" parent="0" />
        <mxCell id="CQEOolWpLD_dXYsg3oh--159" value="視窗A" style="swimlane;whiteSpace=wrap" vertex="1" parent="1">
          <mxGeometry x="814.5" y="250" width="540" height="1210" as="geometry" />
        </mxCell>
        <mxCell id="CQEOolWpLD_dXYsg3oh--160" value="" style="ellipse;shape=startState;fillColor=#000000;strokeColor=#ff0000;" vertex="1" parent="CQEOolWpLD_dXYsg3oh--159">
          <mxGeometry x="235" y="244" width="30" height="30" as="geometry" />
        </mxCell>
        <mxCell id="CQEOolWpLD_dXYsg3oh--161" value="在集團篩選出來的列表中，&#xa;於維護作業欄位中點選&#xa;「● 成員退出」功能。" style="rounded=1;" vertex="1" parent="CQEOolWpLD_dXYsg3oh--159">
          <mxGeometry x="170" y="304" width="160" height="70" as="geometry" />
        </mxCell>
        <mxCell id="CQEOolWpLD_dXYsg3oh--162" value="" style="endArrow=open;strokeColor=#FF0000;endFill=1;rounded=0;entryX=0.5;entryY=0;entryDx=0;entryDy=0;" edge="1" parent="CQEOolWpLD_dXYsg3oh--159" source="CQEOolWpLD_dXYsg3oh--161" target="CQEOolWpLD_dXYsg3oh--182">
          <mxGeometry relative="1" as="geometry">
            <mxPoint x="220" y="412" as="targetPoint" />
            <Array as="points" />
          </mxGeometry>
        </mxCell>
        <mxCell id="CQEOolWpLD_dXYsg3oh--163" style="edgeStyle=none;rounded=0;orthogonalLoop=1;jettySize=auto;html=1;exitX=0.5;exitY=1;exitDx=0;exitDy=0;entryX=0.5;entryY=0;entryDx=0;entryDy=0;endArrow=classic;endFill=1;strokeColor=#FF0000;" edge="1" parent="CQEOolWpLD_dXYsg3oh--159" source="CQEOolWpLD_dXYsg3oh--160" target="CQEOolWpLD_dXYsg3oh--161">
          <mxGeometry relative="1" as="geometry">
            <mxPoint x="250" y="376" as="sourcePoint" />
          </mxGeometry>
        </mxCell>
        <mxCell id="CQEOolWpLD_dXYsg3oh--164" value="" style="rhombus;whiteSpace=wrap;html=1;fillColor=#ffffc0;strokeColor=#ff0000;rounded=0;align=left;" vertex="1" parent="CQEOolWpLD_dXYsg3oh--159">
          <mxGeometry x="242.25" y="614" width="40" height="40" as="geometry" />
        </mxCell>
        <mxCell id="CQEOolWpLD_dXYsg3oh--165" value="點選&quot;查看本集團異動歷史&quot;" style="rounded=1;" vertex="1" parent="CQEOolWpLD_dXYsg3oh--159">
          <mxGeometry x="10" y="604" width="155.5" height="55" as="geometry" />
        </mxCell>
        <mxCell id="CQEOolWpLD_dXYsg3oh--166" value="確認" style="endArrow=open;strokeColor=#FF0000;endFill=1;rounded=0;exitX=1;exitY=0.5;exitDx=0;exitDy=0;" edge="1" parent="CQEOolWpLD_dXYsg3oh--159" source="CQEOolWpLD_dXYsg3oh--182">
          <mxGeometry relative="1" as="geometry">
            <mxPoint x="320" y="437" as="sourcePoint" />
            <mxPoint x="420" y="437" as="targetPoint" />
            <Array as="points" />
          </mxGeometry>
        </mxCell>
        <mxCell id="CQEOolWpLD_dXYsg3oh--167" value="1.使用者身分&lt;br&gt;2.集團資訊" style="html=1;rounded=0;align=center;fillColor=#f5f5f5;strokeColor=#666666;fontColor=#333333;" vertex="1" parent="CQEOolWpLD_dXYsg3oh--159">
          <mxGeometry x="420" y="412" width="80" height="50" as="geometry" />
        </mxCell>
        <mxCell id="CQEOolWpLD_dXYsg3oh--168" value="瀏覽集團之企業體列表" style="rounded=1;" vertex="1" parent="CQEOolWpLD_dXYsg3oh--159">
          <mxGeometry x="171.75" y="514" width="180" height="50" as="geometry" />
        </mxCell>
        <mxCell id="CQEOolWpLD_dXYsg3oh--169" value="" style="endArrow=open;strokeColor=#FF0000;endFill=1;rounded=0;entryX=0.5;entryY=0;entryDx=0;entryDy=0;" edge="1" parent="CQEOolWpLD_dXYsg3oh--159" source="CQEOolWpLD_dXYsg3oh--168" target="CQEOolWpLD_dXYsg3oh--164">
          <mxGeometry relative="1" as="geometry">
            <mxPoint x="270.5" y="554" as="sourcePoint" />
            <mxPoint x="350" y="564" as="targetPoint" />
            <Array as="points" />
          </mxGeometry>
        </mxCell>
        <mxCell id="CQEOolWpLD_dXYsg3oh--170" value="" style="endArrow=open;strokeColor=#FF0000;endFill=1;rounded=0;exitX=0;exitY=0.5;exitDx=0;exitDy=0;" edge="1" parent="CQEOolWpLD_dXYsg3oh--159" source="CQEOolWpLD_dXYsg3oh--164">
          <mxGeometry relative="1" as="geometry">
            <mxPoint x="290" y="724" as="sourcePoint" />
            <mxPoint x="165.5" y="634" as="targetPoint" />
            <Array as="points" />
          </mxGeometry>
        </mxCell>
        <mxCell id="CQEOolWpLD_dXYsg3oh--171" value="" style="endArrow=open;strokeColor=#FF0000;endFill=1;rounded=0;exitX=0.628;exitY=0;exitDx=0;exitDy=0;entryX=0;entryY=0.5;entryDx=0;entryDy=0;exitPerimeter=0;" edge="1" parent="CQEOolWpLD_dXYsg3oh--159" source="CQEOolWpLD_dXYsg3oh--165" target="CQEOolWpLD_dXYsg3oh--168">
          <mxGeometry relative="1" as="geometry">
            <mxPoint x="80" y="734" as="sourcePoint" />
            <mxPoint x="90" y="514" as="targetPoint" />
            <Array as="points">
              <mxPoint x="107.5" y="539" />
            </Array>
          </mxGeometry>
        </mxCell>
        <mxCell id="CQEOolWpLD_dXYsg3oh--172" value="點選&quot;離開(放棄編輯)&quot;" style="rounded=1;" vertex="1" parent="CQEOolWpLD_dXYsg3oh--159">
          <mxGeometry x="42.25" y="894" width="129.5" height="50" as="geometry" />
        </mxCell>
        <mxCell id="CQEOolWpLD_dXYsg3oh--173" value="點選&quot;送主管簽核&quot;" style="rounded=1;" vertex="1" parent="CQEOolWpLD_dXYsg3oh--159">
          <mxGeometry x="352.25" y="894" width="110" height="50" as="geometry" />
        </mxCell>
        <mxCell id="CQEOolWpLD_dXYsg3oh--174" value="點選&quot;暫存&quot;" style="rounded=1;" vertex="1" parent="CQEOolWpLD_dXYsg3oh--159">
          <mxGeometry x="207.25" y="894" width="110" height="50" as="geometry" />
        </mxCell>
        <mxCell id="CQEOolWpLD_dXYsg3oh--175" value="" style="ellipse;html=1;shape=endState;fillColor=#000000;strokeColor=#ff0000;align=center;" vertex="1" parent="CQEOolWpLD_dXYsg3oh--159">
          <mxGeometry x="92" y="994" width="30" height="30" as="geometry" />
        </mxCell>
        <mxCell id="CQEOolWpLD_dXYsg3oh--176" style="edgeStyle=orthogonalEdgeStyle;rounded=0;orthogonalLoop=1;jettySize=auto;html=1;exitX=0.5;exitY=1;exitDx=0;exitDy=0;endArrow=classic;endFill=1;strokeColor=#FF0000;" edge="1" parent="CQEOolWpLD_dXYsg3oh--159" source="CQEOolWpLD_dXYsg3oh--172" target="CQEOolWpLD_dXYsg3oh--175">
          <mxGeometry relative="1" as="geometry" />
        </mxCell>
        <mxCell id="CQEOolWpLD_dXYsg3oh--177" value="儲存申請資料" style="rounded=1;" vertex="1" parent="CQEOolWpLD_dXYsg3oh--159">
          <mxGeometry x="875.5" y="974" width="110" height="50" as="geometry" />
        </mxCell>
        <mxCell id="CQEOolWpLD_dXYsg3oh--178" value="" style="ellipse;html=1;shape=endState;fillColor=#000000;strokeColor=#ff0000;align=center;" vertex="1" parent="CQEOolWpLD_dXYsg3oh--159">
          <mxGeometry x="915.5" y="1063" width="30" height="30" as="geometry" />
        </mxCell>
        <mxCell id="CQEOolWpLD_dXYsg3oh--179" style="edgeStyle=none;rounded=0;orthogonalLoop=1;jettySize=auto;html=1;exitX=0.5;exitY=1;exitDx=0;exitDy=0;endArrow=classic;endFill=1;strokeColor=#FF0000;" edge="1" parent="CQEOolWpLD_dXYsg3oh--159" source="CQEOolWpLD_dXYsg3oh--177" target="CQEOolWpLD_dXYsg3oh--178">
          <mxGeometry relative="1" as="geometry" />
        </mxCell>
        <mxCell id="CQEOolWpLD_dXYsg3oh--180" style="edgeStyle=none;rounded=0;orthogonalLoop=1;jettySize=auto;html=1;exitX=0.5;exitY=1;exitDx=0;exitDy=0;endArrow=classic;endFill=1;strokeColor=#FF0000;entryX=0;entryY=0.5;entryDx=0;entryDy=0;" edge="1" parent="CQEOolWpLD_dXYsg3oh--159" target="CQEOolWpLD_dXYsg3oh--177">
          <mxGeometry relative="1" as="geometry">
            <mxPoint x="261.75" y="944" as="sourcePoint" />
            <mxPoint x="262.25" y="1134" as="targetPoint" />
            <Array as="points">
              <mxPoint x="262.25" y="999" />
            </Array>
          </mxGeometry>
        </mxCell>
        <mxCell id="CQEOolWpLD_dXYsg3oh--181" style="edgeStyle=orthogonalEdgeStyle;rounded=0;orthogonalLoop=1;jettySize=auto;html=1;exitX=1;exitY=0.5;exitDx=0;exitDy=0;entryX=0.5;entryY=0;entryDx=0;entryDy=0;endArrow=classic;endFill=1;strokeColor=#FF0000;" edge="1" parent="CQEOolWpLD_dXYsg3oh--159" target="CQEOolWpLD_dXYsg3oh--177">
          <mxGeometry relative="1" as="geometry">
            <mxPoint x="462.25" y="919" as="sourcePoint" />
            <mxPoint x="691.75" y="944" as="targetPoint" />
          </mxGeometry>
        </mxCell>
        <mxCell id="CQEOolWpLD_dXYsg3oh--182" value="確認執行成員退出功能" style="rhombus;whiteSpace=wrap;html=1;fillColor=#ffffc0;strokeColor=#ff0000;rounded=0;align=left;" vertex="1" parent="CQEOolWpLD_dXYsg3oh--159">
          <mxGeometry x="185" y="406" width="130" height="62" as="geometry" />
        </mxCell>
        <mxCell id="CQEOolWpLD_dXYsg3oh--183" value="取消" style="endArrow=open;strokeColor=#FF0000;endFill=1;rounded=0;exitX=0;exitY=0.5;exitDx=0;exitDy=0;entryX=0;entryY=0.5;entryDx=0;entryDy=0;" edge="1" parent="CQEOolWpLD_dXYsg3oh--159" source="CQEOolWpLD_dXYsg3oh--182" target="CQEOolWpLD_dXYsg3oh--160">
          <mxGeometry x="-0.195" relative="1" as="geometry">
            <mxPoint x="140" y="437" as="sourcePoint" />
            <mxPoint x="140" y="314" as="targetPoint" />
            <Array as="points">
              <mxPoint x="140" y="437" />
              <mxPoint x="140" y="259" />
            </Array>
            <mxPoint as="offset" />
          </mxGeometry>
        </mxCell>
        <mxCell id="CQEOolWpLD_dXYsg3oh--184" value="點選&quot;成員查詢&quot;" style="rounded=1;" vertex="1" parent="CQEOolWpLD_dXYsg3oh--159">
          <mxGeometry x="352.25" y="609" width="140" height="50" as="geometry" />
        </mxCell>
        <mxCell id="CQEOolWpLD_dXYsg3oh--185" value="" style="endArrow=open;strokeColor=#FF0000;endFill=1;rounded=0;exitX=1;exitY=0.5;exitDx=0;exitDy=0;" edge="1" parent="CQEOolWpLD_dXYsg3oh--159" source="CQEOolWpLD_dXYsg3oh--164">
          <mxGeometry relative="1" as="geometry">
            <mxPoint x="260" y="644" as="sourcePoint" />
            <mxPoint x="355.5" y="634" as="targetPoint" />
            <Array as="points" />
          </mxGeometry>
        </mxCell>
        <mxCell id="CQEOolWpLD_dXYsg3oh--186" value="" style="endArrow=open;strokeColor=#FF0000;endFill=1;rounded=0;entryX=0.5;entryY=0;entryDx=0;entryDy=0;" edge="1" parent="CQEOolWpLD_dXYsg3oh--159" source="CQEOolWpLD_dXYsg3oh--260" target="CQEOolWpLD_dXYsg3oh--174">
          <mxGeometry relative="1" as="geometry">
            <mxPoint x="260.5" y="824" as="sourcePoint" />
            <mxPoint x="256.78999999999996" y="824" as="targetPoint" />
            <Array as="points" />
          </mxGeometry>
        </mxCell>
        <mxCell id="CQEOolWpLD_dXYsg3oh--187" value="" style="endArrow=open;strokeColor=#FF0000;endFill=1;rounded=0;entryX=0.5;entryY=0;entryDx=0;entryDy=0;" edge="1" parent="CQEOolWpLD_dXYsg3oh--159" target="CQEOolWpLD_dXYsg3oh--173">
          <mxGeometry relative="1" as="geometry">
            <mxPoint x="281.75" y="804" as="sourcePoint" />
            <mxPoint x="115.5" y="903.9999999999998" as="targetPoint" />
            <Array as="points">
              <mxPoint x="407.5" y="804" />
            </Array>
          </mxGeometry>
        </mxCell>
        <mxCell id="CQEOolWpLD_dXYsg3oh--260" value="" style="rhombus;whiteSpace=wrap;html=1;fillColor=#ffffc0;strokeColor=#ff0000;rounded=0;align=left;" vertex="1" parent="CQEOolWpLD_dXYsg3oh--159">
          <mxGeometry x="242.25" y="784" width="40" height="40" as="geometry" />
        </mxCell>
        <mxCell id="CQEOolWpLD_dXYsg3oh--261" value="" style="endArrow=open;strokeColor=#FF0000;endFill=1;rounded=0;exitX=1;exitY=0.5;exitDx=0;exitDy=0;" edge="1" parent="CQEOolWpLD_dXYsg3oh--159">
          <mxGeometry relative="1" as="geometry">
            <mxPoint x="261.75" y="654" as="sourcePoint" />
            <mxPoint x="262.25" y="704" as="targetPoint" />
            <Array as="points" />
          </mxGeometry>
        </mxCell>
        <mxCell id="CQEOolWpLD_dXYsg3oh--262" value="編輯成員退出申請表單" style="rounded=1;" vertex="1" parent="CQEOolWpLD_dXYsg3oh--159">
          <mxGeometry x="190" y="704" width="140" height="50" as="geometry" />
        </mxCell>
        <mxCell id="CQEOolWpLD_dXYsg3oh--263" value="" style="endArrow=open;strokeColor=#FF0000;endFill=1;rounded=0;exitX=1;exitY=0.5;exitDx=0;exitDy=0;" edge="1" parent="CQEOolWpLD_dXYsg3oh--159">
          <mxGeometry relative="1" as="geometry">
            <mxPoint x="261.25" y="754" as="sourcePoint" />
            <mxPoint x="261.5" y="784" as="targetPoint" />
            <Array as="points" />
          </mxGeometry>
        </mxCell>
        <mxCell id="CQEOolWpLD_dXYsg3oh--188" value="視窗B" style="swimlane;whiteSpace=wrap" vertex="1" parent="1">
          <mxGeometry x="1354.5" y="250" width="260" height="1210" as="geometry">
            <mxRectangle x="1094.5" y="180" width="70" height="23" as="alternateBounds" />
          </mxGeometry>
        </mxCell>
        <mxCell id="CQEOolWpLD_dXYsg3oh--189" value="瀏覽企業體資訊" style="rounded=1;" vertex="1" parent="CQEOolWpLD_dXYsg3oh--188">
          <mxGeometry x="60" y="704" width="140" height="50" as="geometry" />
        </mxCell>
        <mxCell id="CQEOolWpLD_dXYsg3oh--190" value="" style="ellipse;html=1;shape=endState;fillColor=#000000;strokeColor=#ff0000;align=center;" vertex="1" parent="CQEOolWpLD_dXYsg3oh--188">
          <mxGeometry x="115" y="834" width="30" height="30" as="geometry" />
        </mxCell>
        <mxCell id="CQEOolWpLD_dXYsg3oh--191" style="edgeStyle=orthogonalEdgeStyle;rounded=0;orthogonalLoop=1;jettySize=auto;html=1;exitX=0.5;exitY=1;exitDx=0;exitDy=0;endArrow=classic;endFill=1;strokeColor=#FF0000;" edge="1" parent="CQEOolWpLD_dXYsg3oh--188" target="CQEOolWpLD_dXYsg3oh--190">
          <mxGeometry relative="1" as="geometry">
            <mxPoint x="129.99999999999977" y="753.9999999999998" as="sourcePoint" />
          </mxGeometry>
        </mxCell>
        <mxCell id="CQEOolWpLD_dXYsg3oh--192" value="&lt;font&gt;附加檔案有三個&lt;br&gt;&lt;/font&gt;&lt;div&gt;&lt;br&gt;&lt;/div&gt;" style="shape=note;whiteSpace=wrap;html=1;backgroundOutline=1;darkOpacity=0.05;rounded=1;size=20;fillColor=#f8cecc;strokeColor=#b85450;align=left;verticalAlign=bottom;" vertex="1" parent="1">
          <mxGeometry x="2180" y="1364" width="120" height="58" as="geometry" />
        </mxCell>
        <mxCell id="CQEOolWpLD_dXYsg3oh--215" style="rounded=0;orthogonalLoop=1;jettySize=auto;html=1;entryX=-0.002;entryY=0.005;entryDx=0;entryDy=0;entryPerimeter=0;strokeColor=#FF0000;" edge="1" parent="1" source="CQEOolWpLD_dXYsg3oh--216" target="CQEOolWpLD_dXYsg3oh--159">
          <mxGeometry relative="1" as="geometry" />
        </mxCell>
        <mxCell id="CQEOolWpLD_dXYsg3oh--216" value="&lt;font style=&quot;font-size: 12px&quot;&gt;&lt;span style=&quot;color: rgb(68 , 68 , 68)&quot;&gt;此功能內容在:&lt;br&gt;help_custom_base.pdf的17頁&lt;br&gt;&lt;/span&gt;&lt;/font&gt;" style="shape=note;whiteSpace=wrap;html=1;backgroundOutline=1;darkOpacity=0.05;rounded=1;size=20;fillColor=#f8cecc;strokeColor=#b85450;align=left;verticalAlign=top;" vertex="1" parent="1">
          <mxGeometry x="480" y="262" width="240" height="60" as="geometry" />
        </mxCell>
        <mxCell id="CQEOolWpLD_dXYsg3oh--217" value="企業體成員退出申請資料" style="swimlane;fontStyle=0;childLayout=stackLayout;horizontal=1;startSize=26;horizontalStack=0;resizeParent=1;resizeParentMax=0;resizeLast=0;collapsible=1;marginBottom=0;align=center;fontSize=14;" vertex="1" parent="1">
          <mxGeometry x="1980" y="1074" width="160" height="296" as="geometry">
            <mxRectangle x="1250" y="1624" width="160" height="26" as="alternateBounds" />
          </mxGeometry>
        </mxCell>
        <mxCell id="CQEOolWpLD_dXYsg3oh--218" value="執行動作" style="text;spacingLeft=4;spacingRight=4;overflow=hidden;rotatable=0;points=[[0,0.5],[1,0.5]];portConstraint=eastwest;fontSize=12;strokeColor=#000000;" vertex="1" parent="CQEOolWpLD_dXYsg3oh--217">
          <mxGeometry y="26" width="160" height="30" as="geometry" />
        </mxCell>
        <mxCell id="CQEOolWpLD_dXYsg3oh--219" value="企業體代表證號" style="text;spacingLeft=4;spacingRight=4;overflow=hidden;rotatable=0;points=[[0,0.5],[1,0.5]];portConstraint=eastwest;fontSize=12;strokeColor=#000000;" vertex="1" parent="CQEOolWpLD_dXYsg3oh--217">
          <mxGeometry y="56" width="160" height="30" as="geometry" />
        </mxCell>
        <mxCell id="CQEOolWpLD_dXYsg3oh--220" value="企業體名稱" style="text;fillColor=none;spacingLeft=4;spacingRight=4;overflow=hidden;rotatable=0;points=[[0,0.5],[1,0.5]];portConstraint=eastwest;fontSize=12;strokeColor=#000000;" vertex="1" parent="CQEOolWpLD_dXYsg3oh--217">
          <mxGeometry y="86" width="160" height="30" as="geometry" />
        </mxCell>
        <mxCell id="CQEOolWpLD_dXYsg3oh--221" value="是否為欲退出之企業體" style="text;spacingLeft=4;spacingRight=4;overflow=hidden;rotatable=0;points=[[0,0.5],[1,0.5]];portConstraint=eastwest;fontSize=12;strokeColor=#000000;" vertex="1" parent="CQEOolWpLD_dXYsg3oh--217">
          <mxGeometry y="116" width="160" height="30" as="geometry" />
        </mxCell>
        <mxCell id="CQEOolWpLD_dXYsg3oh--222" value="是否為新代表證號" style="text;fillColor=none;spacingLeft=4;spacingRight=4;overflow=hidden;rotatable=0;points=[[0,0.5],[1,0.5]];portConstraint=eastwest;fontSize=12;strokeColor=#000000;" vertex="1" parent="CQEOolWpLD_dXYsg3oh--217">
          <mxGeometry y="146" width="160" height="30" as="geometry" />
        </mxCell>
        <mxCell id="CQEOolWpLD_dXYsg3oh--223" value="退出原因" style="text;fillColor=none;spacingLeft=4;spacingRight=4;overflow=hidden;rotatable=0;points=[[0,0.5],[1,0.5]];portConstraint=eastwest;fontSize=12;strokeColor=#000000;" vertex="1" parent="CQEOolWpLD_dXYsg3oh--217">
          <mxGeometry y="176" width="160" height="30" as="geometry" />
        </mxCell>
        <mxCell id="CQEOolWpLD_dXYsg3oh--224" value="備註說明" style="text;fillColor=none;spacingLeft=4;spacingRight=4;overflow=hidden;rotatable=0;points=[[0,0.5],[1,0.5]];portConstraint=eastwest;fontSize=12;strokeColor=#000000;" vertex="1" parent="CQEOolWpLD_dXYsg3oh--217">
          <mxGeometry y="206" width="160" height="30" as="geometry" />
        </mxCell>
        <mxCell id="CQEOolWpLD_dXYsg3oh--225" value="附加檔案" style="text;fillColor=none;spacingLeft=4;spacingRight=4;overflow=hidden;rotatable=0;points=[[0,0.5],[1,0.5]];portConstraint=eastwest;fontSize=12;strokeColor=#000000;" vertex="1" parent="CQEOolWpLD_dXYsg3oh--217">
          <mxGeometry y="236" width="160" height="30" as="geometry" />
        </mxCell>
        <mxCell id="CQEOolWpLD_dXYsg3oh--226" value="附加檔案的檔名或說明" style="text;fillColor=none;spacingLeft=4;spacingRight=4;overflow=hidden;rotatable=0;points=[[0,0.5],[1,0.5]];portConstraint=eastwest;fontSize=12;strokeColor=#000000;" vertex="1" parent="CQEOolWpLD_dXYsg3oh--217">
          <mxGeometry y="266" width="160" height="30" as="geometry" />
        </mxCell>
        <mxCell id="CQEOolWpLD_dXYsg3oh--227" value="server" style="swimlane;whiteSpace=wrap" vertex="1" parent="1">
          <mxGeometry x="1614.5" y="250" width="260" height="1210" as="geometry">
            <mxRectangle x="1094.5" y="180" width="70" height="23" as="alternateBounds" />
          </mxGeometry>
        </mxCell>
        <mxCell id="CQEOolWpLD_dXYsg3oh--228" value="查詢集團之企業體列表" style="rounded=1;" vertex="1" parent="CQEOolWpLD_dXYsg3oh--227">
          <mxGeometry x="55.5" y="412" width="140" height="50" as="geometry" />
        </mxCell>
        <mxCell id="CQEOolWpLD_dXYsg3oh--229" value="查詢該企業體資訊" style="rounded=1;" vertex="1" parent="CQEOolWpLD_dXYsg3oh--227">
          <mxGeometry x="55.5" y="609" width="140" height="50" as="geometry" />
        </mxCell>
        <mxCell id="CQEOolWpLD_dXYsg3oh--230" value="" style="endArrow=open;strokeColor=#FF0000;endFill=1;rounded=0;entryX=1;entryY=0.5;entryDx=0;entryDy=0;" edge="1" parent="CQEOolWpLD_dXYsg3oh--227" target="CQEOolWpLD_dXYsg3oh--189">
          <mxGeometry relative="1" as="geometry">
            <mxPoint x="121" y="659" as="sourcePoint" />
            <mxPoint x="-484.5" y="723.5" as="targetPoint" />
            <Array as="points">
              <mxPoint x="121.5" y="729" />
            </Array>
          </mxGeometry>
        </mxCell>
        <mxCell id="CQEOolWpLD_dXYsg3oh--231" value="" style="endArrow=open;strokeColor=#FF0000;endFill=1;rounded=0;entryX=0;entryY=0.5;entryDx=0;entryDy=0;exitX=1;exitY=0.5;exitDx=0;exitDy=0;" edge="1" parent="1" source="CQEOolWpLD_dXYsg3oh--167" target="CQEOolWpLD_dXYsg3oh--228">
          <mxGeometry relative="1" as="geometry">
            <mxPoint x="1320" y="687" as="sourcePoint" />
            <mxPoint x="1410" y="686" as="targetPoint" />
            <Array as="points" />
          </mxGeometry>
        </mxCell>
        <mxCell id="CQEOolWpLD_dXYsg3oh--232" value="" style="endArrow=open;strokeColor=#FF0000;endFill=1;rounded=0;entryX=1;entryY=0.5;entryDx=0;entryDy=0;" edge="1" parent="1" source="CQEOolWpLD_dXYsg3oh--228" target="CQEOolWpLD_dXYsg3oh--168">
          <mxGeometry relative="1" as="geometry">
            <mxPoint x="1480" y="714" as="sourcePoint" />
            <mxPoint x="1580" y="724" as="targetPoint" />
            <Array as="points">
              <mxPoint x="1740" y="789" />
            </Array>
          </mxGeometry>
        </mxCell>
        <mxCell id="CQEOolWpLD_dXYsg3oh--233" value="" style="endArrow=open;strokeColor=#FF0000;endFill=1;rounded=0;" edge="1" parent="1" source="CQEOolWpLD_dXYsg3oh--184" target="CQEOolWpLD_dXYsg3oh--229">
          <mxGeometry relative="1" as="geometry">
            <mxPoint x="1314.5" y="883.41" as="sourcePoint" />
            <mxPoint x="1660" y="883" as="targetPoint" />
            <Array as="points" />
          </mxGeometry>
        </mxCell>
        <mxCell id="CQEOolWpLD_dXYsg3oh--234" value="&lt;font style=&quot;font-size: 12px&quot;&gt;&lt;span style=&quot;color: rgb(68 , 68 , 68)&quot;&gt;&lt;b&gt;未標示如何查看&lt;br&gt;應在當前頁面或另開新視窗？&lt;/b&gt;&lt;br&gt;&lt;/span&gt;&lt;/font&gt;" style="shape=note;whiteSpace=wrap;html=1;backgroundOutline=1;darkOpacity=0.05;rounded=1;size=20;fillColor=#f8cecc;strokeColor=#b85450;align=left;verticalAlign=top;" vertex="1" parent="1">
          <mxGeometry x="470" y="844" width="240" height="60" as="geometry" />
        </mxCell>
        <mxCell id="CQEOolWpLD_dXYsg3oh--235" value="" style="endArrow=none;dashed=1;html=1;exitX=0;exitY=0;exitDx=240;exitDy=40;exitPerimeter=0;entryX=0;entryY=0.5;entryDx=0;entryDy=0;" edge="1" parent="1" source="CQEOolWpLD_dXYsg3oh--234" target="CQEOolWpLD_dXYsg3oh--165">
          <mxGeometry width="50" height="50" relative="1" as="geometry">
            <mxPoint x="790" y="914" as="sourcePoint" />
            <mxPoint x="840" y="864" as="targetPoint" />
          </mxGeometry>
        </mxCell>
        <mxCell id="CQEOolWpLD_dXYsg3oh--236" value="" style="endArrow=open;strokeColor=#FF0000;endFill=1;rounded=0;" edge="1" parent="1">
          <mxGeometry relative="1" as="geometry">
            <mxPoint x="1056.25" y="1054" as="sourcePoint" />
            <mxPoint x="920" y="1144" as="targetPoint" />
            <Array as="points">
              <mxPoint x="920" y="1054" />
            </Array>
          </mxGeometry>
        </mxCell>
        <mxCell id="CQEOolWpLD_dXYsg3oh--238" value="" style="endArrow=none;dashed=1;html=1;entryX=0;entryY=0.5;entryDx=0;entryDy=0;entryPerimeter=0;exitX=1;exitY=0.5;exitDx=0;exitDy=0;" edge="1" parent="1" source="CQEOolWpLD_dXYsg3oh--225" target="CQEOolWpLD_dXYsg3oh--192">
          <mxGeometry width="50" height="50" relative="1" as="geometry">
            <mxPoint x="2120" y="1379" as="sourcePoint" />
            <mxPoint x="2260" y="1364" as="targetPoint" />
            <Array as="points" />
          </mxGeometry>
        </mxCell>
        <mxCell id="CQEOolWpLD_dXYsg3oh--239" value="集團資訊" style="swimlane;fontStyle=0;childLayout=stackLayout;horizontal=1;startSize=26;horizontalStack=0;resizeParent=1;resizeParentMax=0;resizeLast=0;collapsible=1;marginBottom=0;align=center;fontSize=14;" vertex="1" parent="1">
          <mxGeometry x="1990" y="450" width="160" height="86" as="geometry" />
        </mxCell>
        <mxCell id="CQEOolWpLD_dXYsg3oh--240" value="集團名稱" style="text;fillColor=none;spacingLeft=4;spacingRight=4;overflow=hidden;rotatable=0;points=[[0,0.5],[1,0.5]];portConstraint=eastwest;fontSize=12;strokeColor=#000000;" vertex="1" parent="CQEOolWpLD_dXYsg3oh--239">
          <mxGeometry y="26" width="160" height="30" as="geometry" />
        </mxCell>
        <mxCell id="CQEOolWpLD_dXYsg3oh--241" value="集團代表證號" style="text;fillColor=none;spacingLeft=4;spacingRight=4;overflow=hidden;rotatable=0;points=[[0,0.5],[1,0.5]];portConstraint=eastwest;fontSize=12;strokeColor=#000000;" vertex="1" parent="CQEOolWpLD_dXYsg3oh--239">
          <mxGeometry y="56" width="160" height="30" as="geometry" />
        </mxCell>
        <mxCell id="CQEOolWpLD_dXYsg3oh--242" value="Use" style="endArrow=open;endSize=12;dashed=1;html=1;strokeColor=#FF0000;exitX=1;exitY=0.5;exitDx=0;exitDy=0;" edge="1" parent="1">
          <mxGeometry x="-0.0661" y="10" width="160" relative="1" as="geometry">
            <mxPoint x="1817.7500000000005" y="687" as="sourcePoint" />
            <mxPoint x="1970" y="514" as="targetPoint" />
            <mxPoint as="offset" />
            <Array as="points" />
          </mxGeometry>
        </mxCell>
        <mxCell id="CQEOolWpLD_dXYsg3oh--243" value="企業體資訊" style="swimlane;fontStyle=0;childLayout=stackLayout;horizontal=1;startSize=26;horizontalStack=0;resizeParent=1;resizeParentMax=0;resizeLast=0;collapsible=1;marginBottom=0;align=center;fontSize=14;rounded=0;swimlaneFillColor=#ffffff;shadow=0;sketch=0;glass=0;labelBackgroundColor=none;labelBorderColor=none;" vertex="1" parent="1">
          <mxGeometry x="1980" y="574" width="160" height="386" as="geometry">
            <mxRectangle x="1830" y="110" width="100" height="26" as="alternateBounds" />
          </mxGeometry>
        </mxCell>
        <mxCell id="CQEOolWpLD_dXYsg3oh--244" value="企業體名稱" style="text;fillColor=none;spacingLeft=4;spacingRight=4;overflow=hidden;rotatable=0;points=[[0,0.5],[1,0.5]];portConstraint=eastwest;fontSize=12;strokeColor=#000000;" vertex="1" parent="CQEOolWpLD_dXYsg3oh--243">
          <mxGeometry y="26" width="160" height="30" as="geometry" />
        </mxCell>
        <mxCell id="CQEOolWpLD_dXYsg3oh--245" value="企業體代表證號" style="text;fillColor=none;spacingLeft=4;spacingRight=4;overflow=hidden;rotatable=0;points=[[0,0.5],[1,0.5]];portConstraint=eastwest;fontSize=12;strokeColor=#000000;" vertex="1" parent="CQEOolWpLD_dXYsg3oh--243">
          <mxGeometry y="56" width="160" height="30" as="geometry" />
        </mxCell>
        <mxCell id="CQEOolWpLD_dXYsg3oh--246" value="企業體major營運處" style="text;spacingLeft=4;spacingRight=4;overflow=hidden;rotatable=0;points=[[0,0.5],[1,0.5]];portConstraint=eastwest;fontSize=12;" vertex="1" parent="CQEOolWpLD_dXYsg3oh--243">
          <mxGeometry y="86" width="160" height="30" as="geometry" />
        </mxCell>
        <mxCell id="CQEOolWpLD_dXYsg3oh--247" value="企業體屬性" style="text;fillColor=none;spacingLeft=4;spacingRight=4;overflow=hidden;rotatable=0;points=[[0,0.5],[1,0.5]];portConstraint=eastwest;fontSize=12;strokeColor=#000000;" vertex="1" parent="CQEOolWpLD_dXYsg3oh--243">
          <mxGeometry y="116" width="160" height="30" as="geometry" />
        </mxCell>
        <mxCell id="CQEOolWpLD_dXYsg3oh--248" value="企業體主行業別" style="text;fillColor=none;spacingLeft=4;spacingRight=4;overflow=hidden;rotatable=0;points=[[0,0.5],[1,0.5]];portConstraint=eastwest;fontSize=12;strokeColor=#000000;" vertex="1" parent="CQEOolWpLD_dXYsg3oh--243">
          <mxGeometry y="146" width="160" height="30" as="geometry" />
        </mxCell>
        <mxCell id="CQEOolWpLD_dXYsg3oh--249" value="企業體次行業別" style="text;fillColor=none;spacingLeft=4;spacingRight=4;overflow=hidden;rotatable=0;points=[[0,0.5],[1,0.5]];portConstraint=eastwest;fontSize=12;strokeColor=#000000;" vertex="1" parent="CQEOolWpLD_dXYsg3oh--243">
          <mxGeometry y="176" width="160" height="30" as="geometry" />
        </mxCell>
        <mxCell id="CQEOolWpLD_dXYsg3oh--250" value="Major / Sub" style="text;spacingLeft=4;spacingRight=4;overflow=hidden;rotatable=0;points=[[0,0.5],[1,0.5]];portConstraint=eastwest;fontSize=12;" vertex="1" parent="CQEOolWpLD_dXYsg3oh--243">
          <mxGeometry y="206" width="160" height="30" as="geometry" />
        </mxCell>
        <mxCell id="CQEOolWpLD_dXYsg3oh--251" value="證號營運處" style="text;fillColor=none;spacingLeft=4;spacingRight=4;overflow=hidden;rotatable=0;points=[[0,0.5],[1,0.5]];portConstraint=eastwest;fontSize=12;strokeColor=#000000;" vertex="1" parent="CQEOolWpLD_dXYsg3oh--243">
          <mxGeometry y="236" width="160" height="30" as="geometry" />
        </mxCell>
        <mxCell id="CQEOolWpLD_dXYsg3oh--252" value="主要負責服務人員" style="text;spacingLeft=4;spacingRight=4;overflow=hidden;rotatable=0;points=[[0,0.5],[1,0.5]];portConstraint=eastwest;fontSize=12;" vertex="1" parent="CQEOolWpLD_dXYsg3oh--243">
          <mxGeometry y="266" width="160" height="30" as="geometry" />
        </mxCell>
        <mxCell id="CQEOolWpLD_dXYsg3oh--253" value="近半年平均營收" style="text;fillColor=none;spacingLeft=4;spacingRight=4;overflow=hidden;rotatable=0;points=[[0,0.5],[1,0.5]];portConstraint=eastwest;fontSize=12;strokeColor=#000000;" vertex="1" parent="CQEOolWpLD_dXYsg3oh--243">
          <mxGeometry y="296" width="160" height="30" as="geometry" />
        </mxCell>
        <mxCell id="CQEOolWpLD_dXYsg3oh--254" value="終止年月" style="text;spacingLeft=4;spacingRight=4;overflow=hidden;rotatable=0;points=[[0,0.5],[1,0.5]];portConstraint=eastwest;fontSize=12;" vertex="1" parent="CQEOolWpLD_dXYsg3oh--243">
          <mxGeometry y="326" width="160" height="30" as="geometry" />
        </mxCell>
        <mxCell id="CQEOolWpLD_dXYsg3oh--255" value="鎖定?" style="text;fillColor=none;spacingLeft=4;spacingRight=4;overflow=hidden;rotatable=0;points=[[0,0.5],[1,0.5]];portConstraint=eastwest;fontSize=12;strokeColor=#000000;" vertex="1" parent="CQEOolWpLD_dXYsg3oh--243">
          <mxGeometry y="356" width="160" height="30" as="geometry" />
        </mxCell>
        <mxCell id="CQEOolWpLD_dXYsg3oh--256" value="Use" style="endArrow=open;endSize=12;dashed=1;html=1;strokeColor=#FF0000;" edge="1" parent="1">
          <mxGeometry x="-0.0661" y="10" width="160" relative="1" as="geometry">
            <mxPoint x="1820" y="694" as="sourcePoint" />
            <mxPoint x="1950" y="694" as="targetPoint" />
            <mxPoint as="offset" />
          </mxGeometry>
        </mxCell>
        <mxCell id="CQEOolWpLD_dXYsg3oh--257" value="Use" style="endArrow=open;endSize=12;dashed=1;html=1;strokeColor=#FF0000;" edge="1" parent="1">
          <mxGeometry x="-0.0661" y="10" width="160" relative="1" as="geometry">
            <mxPoint x="1803.25" y="1236" as="sourcePoint" />
            <mxPoint x="1970" y="1236" as="targetPoint" />
            <mxPoint as="offset" />
          </mxGeometry>
        </mxCell>
        <mxCell id="CQEOolWpLD_dXYsg3oh--258" value="Use" style="endArrow=open;endSize=12;dashed=1;html=1;strokeColor=#FF0000;" edge="1" parent="1">
          <mxGeometry x="-0.0661" y="10" width="160" relative="1" as="geometry">
            <mxPoint x="1800" y="1214" as="sourcePoint" />
            <mxPoint x="1960" y="934" as="targetPoint" />
            <mxPoint as="offset" />
          </mxGeometry>
        </mxCell>
        <mxCell id="CQEOolWpLD_dXYsg3oh--259" value="Use" style="endArrow=open;endSize=12;dashed=1;html=1;strokeColor=#FF0000;exitX=1;exitY=0.5;exitDx=0;exitDy=0;" edge="1" parent="1" source="CQEOolWpLD_dXYsg3oh--229">
          <mxGeometry x="-0.0661" y="10" width="160" relative="1" as="geometry">
            <mxPoint x="1800.0000000000005" y="894" as="sourcePoint" />
            <mxPoint x="1950" y="884" as="targetPoint" />
            <mxPoint as="offset" />
          </mxGeometry>
        </mxCell>
        <mxCell id="CQEOolWpLD_dXYsg3oh--264" value="&lt;font&gt;&lt;div&gt;選取欲退出的企業體成員&lt;/div&gt;&lt;div&gt;選取新代表證號&lt;/div&gt;&lt;div&gt;選取退出原因&lt;/div&gt;&lt;div&gt;&lt;span&gt;&lt;br&gt;&lt;/span&gt;&lt;/div&gt;&lt;div&gt;&lt;span&gt;退出原因選擇&lt;/span&gt;&lt;/div&gt;&lt;div&gt;&lt;span&gt;「企業體倒閉」&lt;/span&gt;&lt;span&gt;時，會將企業體&lt;/span&gt;&lt;span&gt;層及其證號層&lt;/span&gt;&lt;span&gt;整個刪除&lt;/span&gt;&lt;/div&gt;&lt;/font&gt;" style="shape=note;whiteSpace=wrap;html=1;backgroundOutline=1;darkOpacity=0.05;rounded=1;size=27;fillColor=#f8cecc;strokeColor=#b85450;align=left;verticalAlign=top;horizontal=1;" vertex="1" parent="1">
          <mxGeometry x="620" y="974" width="170" height="110" as="geometry" />
        </mxCell>
        <mxCell id="CQEOolWpLD_dXYsg3oh--265" value="" style="endArrow=none;dashed=1;html=1;" edge="1" parent="1" source="CQEOolWpLD_dXYsg3oh--262" target="CQEOolWpLD_dXYsg3oh--264">
          <mxGeometry width="50" height="50" relative="1" as="geometry">
            <mxPoint x="480" y="1144" as="sourcePoint" />
            <mxPoint x="590" y="1120" as="targetPoint" />
            <Array as="points" />
          </mxGeometry>
        </mxCell>
        <mxCell id="CQEOolWpLD_dXYsg3oh--266" value="退出原因分為&lt;br&gt;1.企業體倒閉&lt;br&gt;2.其他原因&lt;br&gt;&lt;br&gt;1. 企業體倒閉:&lt;br&gt;會將企業體層及其證號層整個刪除&lt;br&gt;2. 其他原因:&lt;br&gt;&lt;b&gt;問題-是否僅為更改企業體狀態？&lt;/b&gt;" style="shape=note;whiteSpace=wrap;html=1;backgroundOutline=1;darkOpacity=0.05;rounded=1;size=20;fillColor=#f8cecc;strokeColor=#b85450;align=left;verticalAlign=bottom;" vertex="1" parent="1">
          <mxGeometry x="2210" y="1164" width="110" height="160" as="geometry" />
        </mxCell>
        <mxCell id="CQEOolWpLD_dXYsg3oh--267" value="" style="endArrow=none;dashed=1;html=1;entryX=0;entryY=0.5;entryDx=0;entryDy=0;entryPerimeter=0;exitX=1;exitY=0.5;exitDx=0;exitDy=0;" edge="1" parent="1" source="CQEOolWpLD_dXYsg3oh--223">
          <mxGeometry width="50" height="50" relative="1" as="geometry">
            <mxPoint x="2150" y="1221.5" as="sourcePoint" />
            <mxPoint x="2210" y="1221.5" as="targetPoint" />
            <Array as="points" />
          </mxGeometry>
        </mxCell>
      </root>
    </mxGraphModel>
  </diagram>
</mxfile>
